<svg width="25" height="25" viewBox="0 0 25 25" fill="none" xmlns="http://www.w3.org/2000/svg">
<path d="M23.3889 10.5972H22.2223V18.5486L17.1111 13.4375L16.132 14.4166L21.1528 19.4444H3.93058L8.79169 14.4166L7.79169 13.4513L2.7778 18.6388V6.61107L11.4098 15.2013C11.67 15.46 12.022 15.6052 12.3889 15.6052C12.7558 15.6052 13.1079 15.46 13.3681 15.2013L17.9931 10.5972H16.0278L12.3889 14.2152L3.68753 5.55551H13.9306L14.7292 4.16663H2.7778C2.40945 4.16663 2.05618 4.31295 1.79571 4.57342C1.53524 4.83389 1.38892 5.18716 1.38892 5.55551V19.4444C1.38892 19.8128 1.53524 20.166 1.79571 20.4265C2.05618 20.687 2.40945 20.8333 2.7778 20.8333H22.2223C22.5906 20.8333 22.9439 20.687 23.2043 20.4265C23.4648 20.166 23.6111 19.8128 23.6111 19.4444V10.5833L23.3889 10.5972Z" fill="#69DBDB"/>
<path d="M18.6458 0.694519L14.6736 7.57646C14.5976 7.71097 14.5579 7.86298 14.5585 8.01751C14.5591 8.17203 14.6 8.32373 14.6771 8.45763C14.7542 8.59154 14.8649 8.70303 14.9982 8.7811C15.1316 8.85918 15.283 8.90114 15.4375 8.90285H23.3889C23.5434 8.90114 23.6948 8.85918 23.8282 8.7811C23.9615 8.70303 24.0722 8.59154 24.1493 8.45763C24.2264 8.32373 24.2673 8.17203 24.2679 8.01751C24.2685 7.86298 24.2289 7.71097 24.1528 7.57646L20.1806 0.694519C20.1022 0.560529 19.9902 0.449387 19.8555 0.37215C19.7209 0.294913 19.5684 0.254272 19.4132 0.254272C19.258 0.254272 19.1055 0.294913 18.9709 0.37215C18.8362 0.449387 18.7242 0.560529 18.6458 0.694519V0.694519Z" fill="#69DBDB"/>
</svg>
