<svg width="28" height="27" viewBox="0 0 28 27" fill="none" xmlns="http://www.w3.org/2000/svg">
<path d="M27.1466 13.7733L14.7716 0.422551C14.2505 -0.14085 13.2495 -0.14085 12.7283 0.422551L0.353353 13.7733C0.17523 13.965 0.0583116 14.2028 0.0168136 14.4579C-0.0246845 14.7129 0.0110258 14.9741 0.119603 15.2098C0.339603 15.6918 0.831853 16.0015 1.37498 16.0015H4.12498V25.3471C4.12498 25.7011 4.26984 26.0407 4.5277 26.2911C4.78557 26.5415 5.1353 26.6821 5.49998 26.6821H9.62498C9.98965 26.6821 10.3394 26.5415 10.5972 26.2911C10.8551 26.0407 11 25.7011 11 25.3471V20.0068H16.5V25.3471C16.5 25.7011 16.6448 26.0407 16.9027 26.2911C17.1606 26.5415 17.5103 26.6821 17.875 26.6821H22C22.3646 26.6821 22.7144 26.5415 22.9722 26.2911C23.2301 26.0407 23.375 25.7011 23.375 25.3471V16.0015H26.125C26.3913 16.0026 26.6521 15.9285 26.8758 15.7881C27.0994 15.6478 27.2762 15.4472 27.3845 15.211C27.4928 14.9748 27.5279 14.7131 27.4857 14.4578C27.4435 14.2025 27.3256 13.9647 27.1466 13.7733V13.7733Z" fill="#69DBDB"/>
</svg>
