<svg width="50" height="50" viewBox="0 0 50 50" fill="none" xmlns="http://www.w3.org/2000/svg">
<path d="M6.25 0C4.5924 0 3.00269 0.65848 1.83058 1.83058C0.65848 3.00269 0 4.5924 0 6.25L0 43.75C0 45.4076 0.65848 46.9973 1.83058 48.1694C3.00269 49.3415 4.5924 50 6.25 50H43.75C45.4076 50 46.9973 49.3415 48.1694 48.1694C49.3415 46.9973 50 45.4076 50 43.75V6.25C50 4.5924 49.3415 3.00269 48.1694 1.83058C46.9973 0.65848 45.4076 0 43.75 0L6.25 0Z" fill="black"/>
<path d="M34.2966 12.8334H15.0996C13.7743 12.8334 12.7 13.7109 12.7 14.7934C12.7 15.8759 13.7743 16.7534 15.0996 16.7534H34.2966C35.6219 16.7534 36.6962 15.8759 36.6962 14.7934C36.6962 13.7109 35.6219 12.8334 34.2966 12.8334Z" fill="#F8F8F8"/>
<path d="M34.2966 23.0417H15.0996C13.7743 23.0417 12.7 23.9192 12.7 25.0017C12.7 26.0842 13.7743 26.9617 15.0996 26.9617H34.2966C35.6219 26.9617 36.6962 26.0842 36.6962 25.0017C36.6962 23.9192 35.6219 23.0417 34.2966 23.0417Z" fill="#F8F8F8"/>
<path d="M34.2966 33.25H15.0996C13.7743 33.25 12.7 34.1275 12.7 35.21C12.7 36.2925 13.7743 37.17 15.0996 37.17H34.2966C35.6219 37.17 36.6962 36.2925 36.6962 35.21C36.6962 34.1275 35.6219 33.25 34.2966 33.25Z" fill="#F8F8F8"/>
</svg>
