<svg width="28" height="26" viewBox="0 0 28 26" fill="none" xmlns="http://www.w3.org/2000/svg">
<path d="M20.412 15.0173C20.0611 14.8583 18.3522 14.112 18.0329 14.0055C17.7135 13.9037 17.4816 13.8505 17.2489 14.1645C17.0214 14.4707 16.3511 15.1716 16.1464 15.3759C15.9416 15.5803 15.7404 15.596 15.3947 15.4574C15.0439 15.2984 13.923 14.9719 12.5921 13.9037C11.5526 13.076 10.8605 12.0564 10.6549 11.7424C10.4501 11.4323 10.6321 11.2569 10.8054 11.1018C10.9646 10.9593 11.1562 10.7432 11.3339 10.5553C11.5027 10.3673 11.557 10.2412 11.6804 10.0376C11.7941 9.81758 11.7355 9.64609 11.6489 9.49104C11.5622 9.33598 10.8649 7.79878 10.5735 7.18641C10.2952 6.57873 10.0039 6.65625 9.7895 6.65625C9.58912 6.63981 9.35637 6.63981 9.1245 6.63981C8.89262 6.63981 8.51375 6.71734 8.19437 7.01491C7.875 7.32893 6.97287 8.07913 6.97287 9.59675C6.97287 11.1183 8.2215 12.5905 8.39475 12.8105C8.57237 13.0142 10.8509 16.1465 14.3465 17.4926C15.1804 17.8067 15.8279 17.9946 16.3336 18.1496C17.1675 18.3861 17.9287 18.3533 18.5299 18.2757C19.1949 18.1778 20.5896 17.5208 20.8819 16.7871C21.1785 16.0486 21.1785 15.437 21.0919 15.2984C21.0052 15.1559 20.7777 15.0784 20.4269 14.9398L20.412 15.0173ZM14.0726 22.7096H14.0542C11.9849 22.7096 9.93912 22.2076 8.15237 21.2695L7.73325 21.0455L3.35825 22.0651L4.53425 18.2554L4.25163 17.8638C3.09616 16.2196 2.48316 14.3167 2.48325 12.3744C2.48325 6.68914 7.68337 2.05169 14.0814 2.05169C17.1806 2.05169 20.0882 3.13235 22.2757 5.09008C23.3549 6.04434 24.2108 7.18138 24.7937 8.43485C25.3766 9.68832 25.6748 11.0331 25.6707 12.3908C25.662 18.0721 20.4662 22.7096 14.077 22.7096H14.0726ZM23.9391 3.60142C21.2774 1.30071 17.7774 0 14.0542 0C6.37525 0 0.1225 5.57168 0.118125 12.419C0.118125 14.6054 0.756 16.7385 1.9775 18.6265L0 25.0588L7.392 23.3337C9.43977 24.3218 11.7287 24.8415 14.0551 24.8466H14.0595C21.7429 24.8466 27.9956 19.2749 28 12.4229C28 9.10732 26.5554 5.98671 23.9216 3.64136L23.9391 3.60142Z" fill="#69DBDB"/>
</svg>
